<?xml version="1.0" encoding="UTF-8"?>
<svg width="407px" height="300px" viewBox="0 0 407 300" version="1.1" xmlns="http://www.w3.org/2000/svg" xmlns:xlink="http://www.w3.org/1999/xlink">
    <title>undraw_Taking_notes_re_bnaf</title>
    <g id="Page-1" stroke="none" stroke-width="1" fill="none" fill-rule="evenodd">
        <g id="Desktop-HD" transform="translate(-517.000000, -362.000000)" fill-rule="nonzero">
            <g id="undraw_Taking_notes_re_bnaf" transform="translate(517.000000, 362.000000)">
                <path d="M150.725669,184.842822 L66.5459504,202.586426 C61.4807663,203.64813 56.5120181,200.409381 55.4389191,195.346599 L40.9938033,126.815675 C39.9321039,121.750491 43.1708544,116.781745 48.233636,115.708649 L132.413349,97.9650441 C137.478532,96.9033412 142.447279,100.14209 143.520375,105.204871 L157.965491,173.735796 C159.027191,178.800976 155.788446,183.76972 150.725669,184.842822 Z M48.4611287,116.787877 C43.9939867,117.734753 41.1362794,122.118919 42.0730423,126.588193 L56.5181471,195.119118 C57.465023,199.58626 61.8491896,202.443967 66.3184632,201.507204 L150.498176,183.763594 C154.965321,182.81672 157.823031,178.432553 156.886268,173.963278 L142.441153,105.432353 C141.494277,100.965208 137.110106,98.1075002 132.640831,99.0442665 L48.4611287,116.787877 Z" id="Shape" fill="#3F3D56"></path>
                <path d="M127.183048,120.561629 L84.6986471,129.516596 C83.9272192,129.695622 83.1489295,129.246609 82.9177721,128.489167 C82.8148147,128.104431 82.8745589,127.694287 83.0829953,127.35491 C83.2914318,127.015533 83.6302266,126.776775 84.0199357,126.694621 L127.266447,117.579044 C128.955022,118.530645 128.421331,120.300645 127.182518,120.561767 L127.183048,120.561629 Z" id="ea648e8d-1b31-4ae2-9566-f54bfd0d94c9" fill="#CCCCCC"></path>
                <path d="M128.753807,128.013678 L86.2694062,136.968651 C85.4979786,137.147674 84.7196918,136.698658 84.4885368,135.941217 C84.3855794,135.556481 84.4453238,135.146338 84.6537603,134.806962 C84.8621969,134.467586 85.2009917,134.228829 85.5907004,134.146676 L128.837211,125.031066 C130.525787,125.982673 129.99209,127.752673 128.753278,128.013789 L128.753807,128.013678 Z" id="b4f9d9e0-1a47-44a2-8a19-0d88a6e9c18f" fill="#CCCCCC"></path>
                <path d="M77.9796121,143.147487 L65.0137886,145.880454 C64.1321242,146.065366 63.2671932,145.501584 63.0805037,144.620294 L59.8553768,129.319561 C59.6704651,128.437896 60.2342471,127.572965 61.1155368,127.386276 L74.0813658,124.653309 C74.9629696,124.46872 75.8276904,125.032365 76.0146507,125.913469 L79.2397776,141.214219 C79.4246893,142.095883 78.8609073,142.960814 77.9796176,143.147504 L77.9796121,143.147487 Z" id="e168965a-63e1-4676-8cbb-3e09d33a4a3f" fill="#CCCCCC"></path>
                <path d="M131.846377,143.297846 L67.0073934,156.964765 C66.2359713,157.143791 65.4576875,156.694779 65.2265349,155.937342 C65.1235741,155.552605 65.1833168,155.142458 65.3917536,154.80308 C65.6001905,154.463701 65.9389874,154.224942 66.3286985,154.14279 L131.930305,140.315123 C133.618881,141.266724 133.085189,143.036724 131.846377,143.297846 L131.846377,143.297846 Z" id="af0ff97e-1a3a-4f6f-a511-2c807a938985" fill="#CCCCCC"></path>
                <path d="M133.417599,150.752074 L68.5786103,164.418998 C67.8071887,164.598021 67.0289067,164.149011 66.7977518,163.391575 C66.6947909,163.006839 66.7545328,162.596693 66.9629686,162.257315 C67.1714043,161.917937 67.5101998,161.679177 67.8999099,161.597024 L133.501522,147.769351 C135.190097,148.720958 134.656401,150.490958 133.417594,150.752074 L133.417599,150.752074 Z" id="e60f2d91-ad3b-421b-94cb-3aa0f5092f21" fill="#CCCCCC"></path>
                <path d="M134.987801,158.201432 L70.148807,171.868357 C69.3773842,172.047376 68.5991033,171.598364 68.3679485,170.840928 C68.2649878,170.456192 68.3247306,170.046046 68.5331675,169.706668 C68.7416045,169.367291 69.0804014,169.128533 69.4701121,169.046382 L135.071724,155.21871 C136.7603,156.170316 136.226603,157.940311 134.98779,158.201432 L134.987801,158.201432 Z" id="a5554f8b-57e8-4c3b-815c-c76cc46b61b5" fill="#CCCCCC"></path>
                <path d="M136.558897,165.655108 L71.7199136,179.322033 C70.9484904,179.501056 70.1702077,179.052042 69.9390551,178.294605 C69.8360926,177.909869 69.8958339,177.499723 70.10427,177.160345 C70.3127061,176.820967 70.6515027,176.582209 71.0412132,176.500059 L136.642825,162.672386 C138.331401,163.623993 137.797704,165.393987 136.558897,165.655108 L136.558897,165.655108 Z" id="eee68bf7-fbe9-4bfc-85ae-b0141fb14f45" fill="#CCCCCC"></path>
                <path d="M138.12921,173.105024 L73.2902261,186.771949 C72.5188029,186.950971 71.7405202,186.501958 71.5093676,185.74452 C71.4064034,185.359784 71.466144,184.949638 71.6745804,184.610259 C71.8830168,184.270881 72.2218143,184.032123 72.6115257,183.949974 L138.213138,170.122301 C139.901741,171.073908 139.368017,172.843908 138.12921,173.105024 Z" id="b9a7afa1-162f-46e2-88e2-f572ab59fc71" fill="#CCCCCC"></path>
                <path d="M148.471809,138.987248 C148.324516,139.254509 148.198524,139.532968 148.095006,139.820035 L121.550868,146.406987 L116.933156,141.62984 L108.812752,147.656482 L116.165625,156.907919 C117.385791,158.443155 119.472887,158.988689 121.288235,158.24689 L150.091175,146.477283 C152.029565,147.90413 154.648619,147.982669 156.669026,146.674537 C158.689432,145.366405 159.689594,142.944569 159.180969,140.592007 C158.672344,138.239444 156.761068,136.447062 154.380727,136.090373 C152.000386,135.733684 149.647685,136.887118 148.471831,138.987265 L148.471809,138.987248 Z" id="Path" fill="#FFB8B8"></path>
                <path d="M57.8670165,197.604342 C59.542208,197.087003 60.9022111,195.854231 61.5810769,194.237739 C62.2599427,192.621247 62.1879366,190.787085 61.3844338,189.228789 L79.6514669,138.456392 L66.965625,136.208222 L52.9987335,186.822744 C50.4136008,188.380289 49.4019864,191.625208 50.6440174,194.375883 C51.8860484,197.126558 54.9891361,198.513538 57.8670165,197.604331 L57.8670165,197.604342 Z" id="Path" fill="#FFB8B8"></path>
                <path d="M77.3315515,147.469048 L64.8062647,142.661967 C64.0851431,142.385191 63.520206,141.808241 63.258663,141.081455 C62.9971199,140.35467 63.0648761,139.550037 63.4442757,138.877224 L70.0150478,127.227022 C71.4945869,123.440422 75.7586876,121.564452 79.5498632,123.032228 C83.3410389,124.500004 85.2302379,128.75826 83.774239,132.553974 L80.8759688,145.567335 C80.7078211,146.32123 80.2198508,146.9646 79.5392137,147.329792 C78.8585765,147.694985 78.0526894,147.745829 77.3315515,147.469075 L77.3315515,147.469048 Z" id="Path" fill="#FFC706"></path>
                <polygon id="Path" fill="#FFB8B8" points="105.602757 292.92739 112.363235 292.92739 115.579963 266.849449 105.601654 266.85"></polygon>
                <path d="M103.878039,290.720289 L117.192634,290.719737 L117.193186,290.719737 C119.443589,290.719737 121.60184,291.613613 123.193128,293.204876 C124.784416,294.796139 125.67836,296.954376 125.67836,299.204779 L125.67836,299.480515 L103.878447,299.48132 L103.878039,290.720289 Z" id="Path" fill="#2F2E41"></path>
                <polygon id="Path" fill="#FFB8B8" points="67.5512868 292.92739 74.3117647 292.92739 77.5284926 266.849449 67.5501838 266.85"></polygon>
                <path d="M65.826568,290.720289 L79.1411636,290.719737 L79.1417151,290.719737 C81.3921183,290.719737 83.5503696,291.613613 85.1416574,293.204876 C86.7329452,294.796139 87.6268897,296.954376 87.6268897,299.204779 L87.6268897,299.480515 L65.8269761,299.48132 L65.826568,290.720289 Z" id="Path" fill="#2F2E41"></path>
                <path d="M74.6389412,282.431515 L66.083068,282.431515 C65.4044604,282.431515 64.7554797,282.153499 64.2871757,281.662378 C63.8188716,281.171257 63.5720938,280.509798 63.6042794,279.831954 L67.6682757,192.516513 L67.9243566,192.509509 L109.240086,191.432421 L117.324866,278.797963 C117.387664,279.459524 117.18252,280.118634 116.75537,280.627701 C116.32822,281.136768 115.714752,281.45326 115.052338,281.506307 L105.442263,282.274814 C104.193015,282.374172 103.065558,281.526999 102.813353,280.299447 L90.5209191,218.106563 C90.4516183,217.716094 90.1072467,217.434966 89.7108088,217.445228 L89.7074449,217.445228 C89.309557,217.436391 88.9653615,217.720642 88.898818,218.113026 L77.0738382,280.429202 C76.842943,281.591527 75.823976,282.429464 74.6389412,282.431515 L74.6389412,282.431515 Z" id="Path" fill="#2F2E41"></path>
                <circle id="Oval" fill="#FFB8B8" cx="90.3115809" cy="101.097563" r="13.5446857"></circle>
                <path d="M85.7698676,202.748862 C79.3141875,202.748862 72.6833493,201.051904 67.1864118,196.034812 C66.5931159,195.49694 66.2920603,194.708268 66.3760313,193.911866 C66.9643952,188.625502 69.8184154,161.330432 68.2111268,143.097408 C67.5752319,136.192802 70.2212347,129.390762 75.3557426,124.730851 C80.4003341,120.081541 87.3365519,118.073107 94.0848695,119.307689 L94.0850074,119.307689 C94.2537077,119.337844 94.4222702,119.369619 94.5911029,119.40193 C105.434989,121.500645 112.969373,131.536439 112.116838,142.746265 C110.872798,159.102971 109.757608,181.227496 111.508688,193.73952 C111.65746,194.788968 111.122162,195.816809 110.176996,196.296535 C106.192726,198.309629 96.2103805,202.748862 85.7698676,202.748862 Z" id="Path" fill="#FFC706"></path>
                <path d="M103.444081,148.443651 C102.800974,148.015775 102.376236,147.328904 102.28077,146.562386 L100.630599,133.332706 C99.5399314,129.415416 101.82471,125.354217 105.738941,124.25262 C109.653172,123.151022 113.720732,125.424457 114.83325,129.335597 L120.268704,141.556803 C120.582547,142.26259 120.573639,143.07003 120.244299,143.768721 C119.91496,144.467411 119.297811,144.988147 118.553669,145.195235 L105.628704,148.791926 C104.88452,148.999412 104.08686,148.872248 103.444081,148.443651 L103.444081,148.443651 Z" id="Path" fill="#FFC706"></path>
                <path d="M85.5832059,114.450998 C84.3011846,114.474785 83.0271585,114.244279 81.8347445,113.7728 C81.3100809,113.570608 80.765443,113.404417 80.2417555,113.202088 C75.6167813,111.41523 72.5701324,106.489654 72.4610184,101.532706 C72.3519044,96.5757574 74.9189228,91.764579 78.7307537,88.5938934 C82.5425846,85.4232077 87.4798346,83.7953603 92.4236912,83.4189265 C97.7490276,83.0134467 103.745526,84.3639265 106.721267,88.7988529 C107.51336,89.9793585 108.067318,91.4116268 107.597972,92.8369743 C107.457386,93.2670896 107.206314,93.6527452 106.869877,93.9553566 C105.540949,95.1377096 104.216074,94.2486893 102.861347,94.1701434 C100.99929,94.0621875 99.3268346,95.5694118 98.7257316,97.3350772 C98.1246287,99.1007426 98.3892298,101.044599 98.874579,102.845526 C99.2443277,103.929212 99.4774239,105.054797 99.5684669,106.1962 C99.6481176,107.359867 99.1201178,108.481927 98.1727279,109.162307 C97.0091746,109.865631 95.4811213,109.458579 94.3168842,108.756386 C93.1526471,108.054193 92.1466544,107.077858 90.8890699,106.561136 C89.6314853,106.044414 87.9419007,106.159031 87.2099338,107.304783 C86.9773129,107.721684 86.819868,108.176266 86.7448015,108.647735 C86.0885956,111.637395 86.2394118,111.461338 85.5832059,114.450982 L85.5832059,114.450998 Z" id="Path" fill="#2F2E41"></path>
                <path d="M273.192882,95.9558824 L187.163471,95.9558824 C181.988216,95.9500563 177.794297,91.7561367 177.788471,86.5808824 L177.788471,16.5441176 C177.794297,11.3688633 181.988216,7.17494366 187.163471,7.16911765 L273.192882,7.16911765 C278.368137,7.17494366 282.562056,11.3688633 282.567882,16.5441176 L282.567882,86.5808824 C282.562056,91.7561367 278.368137,95.9500563 273.192882,95.9558824 Z M187.163471,8.27205882 C182.59708,8.27722529 178.896578,11.9777274 178.891412,16.5441176 L178.891412,86.5808824 C178.896578,91.1472726 182.59708,94.8477747 187.163471,94.8529412 L273.192882,94.8529412 C277.759273,94.8477747 281.459775,91.1472726 281.464941,86.5808824 L281.464941,16.5441176 C281.459775,11.9777274 277.759273,8.27722529 273.192882,8.27205882 L187.163471,8.27205882 Z" id="Shape" fill="#3F3D56"></path>
                <path d="M263.414482,28.2011029 L219.996557,28.2011029 C219.204792,28.2171735 218.535847,27.6172911 218.465884,26.8284596 C218.444493,26.4307606 218.587545,26.0417579 218.861497,25.7526686 C219.135448,25.4635793 219.516202,25.2998217 219.914476,25.2998217 L264.111254,25.2998217 C265.567252,26.5792335 264.679974,28.2011085 263.413941,28.2011085 L263.414482,28.2011029 Z" id="eb40ba0f-f2ca-41e6-ba2e-bd824fb45cdc" fill="#CCCCCC"></path>
                <path d="M263.414482,35.8169118 L219.996557,35.8169118 C219.204792,35.8329824 218.535847,35.2331 218.465884,34.4442684 C218.444493,34.0465695 218.587545,33.6575668 218.861497,33.3684774 C219.135448,33.0793881 219.516202,32.9156305 219.914476,32.9156305 L264.111254,32.9156305 C265.567252,34.1950423 264.679974,35.8169173 263.413941,35.8169173 L263.414482,35.8169118 Z" id="ea390b26-798a-41d7-8695-eb41cfeb13d4" fill="#CCCCCC"></path>
                <path d="M210.610616,40.153125 L197.359881,40.153125 C196.459039,40.1522131 195.728991,39.4221646 195.728079,38.5213235 L195.728079,22.884375 C195.728991,21.9835339 196.459039,21.2534855 197.359881,21.2525735 L210.610616,21.2525735 C211.511331,21.2537887 212.241202,21.9836597 212.242417,22.884375 L212.242417,38.5213235 C212.241505,39.4221646 211.511457,40.1522131 210.610616,40.153125 L210.610616,40.153125 Z" id="f9b4f79e-9356-48bc-89d8-91f80de67df3" fill="#3F3D56"></path>
                <path d="M263.288189,51.4102941 L197.024487,51.4102941 C196.232737,51.4263629 195.563801,50.8264993 195.493825,50.0376838 C195.472428,49.6399837 195.615477,49.2509776 195.889429,48.9618861 C196.16338,48.6727946 196.544136,48.5090404 196.942412,48.5090404 L263.985502,48.5090404 C265.441506,49.7884522 264.554222,51.4103272 263.288189,51.4103272 L263.288189,51.4102941 Z" id="f3294a48-db04-45e1-afc8-dab6eb28e529" fill="#CCCCCC"></path>
                <path d="M263.288189,59.0283088 L197.024487,59.0283088 C196.232727,59.0443765 195.563788,58.4444973 195.493825,57.655671 C195.472428,57.2579708 195.615477,56.8689647 195.889429,56.5798732 C196.16338,56.2907817 196.544136,56.1270276 196.942412,56.1270276 L263.985502,56.1270276 C265.441506,57.4064393 264.554222,59.0283143 263.288189,59.0283143 L263.288189,59.0283088 Z" id="bb6dba8b-bb0a-4f92-a6ea-c6252f741607" fill="#CCCCCC"></path>
                <path d="M263.288189,66.6413603 L197.024487,66.6413603 C196.232726,66.6574307 195.563785,66.0575501 195.493825,65.2687224 C195.472428,64.8710223 195.615477,64.4820162 195.889429,64.1929247 C196.16338,63.9038332 196.544136,63.740079 196.942412,63.740079 L263.985502,63.740079 C265.441506,65.0194908 264.554222,66.6413658 263.288189,66.6413658 L263.288189,66.6413603 Z" id="b1d451cb-91ad-40cf-876e-6a74c98e5c4f" fill="#CCCCCC"></path>
                <path d="M263.288189,74.2588235 L197.024487,74.2588235 C196.232736,74.274895 195.563799,73.67503 195.493825,72.8862132 C195.472428,72.4885131 195.615477,72.099507 195.889429,71.8104155 C196.16338,71.521324 196.544136,71.3575699 196.942412,71.3575699 L263.985502,71.3575699 C265.441506,72.6369816 264.554222,74.2588566 263.288189,74.2588566 L263.288189,74.2588235 Z" id="bcef27e7-bcca-4cc4-a6d4-200e9e04132c" fill="#CCCCCC"></path>
                <path d="M263.288189,81.8724265 L197.024487,81.8724265 C196.232727,81.8884941 195.563788,81.288615 195.493825,80.4997886 C195.472428,80.1020879 195.615477,79.7130813 195.889428,79.423989 C196.16338,79.1348966 196.544136,78.9711397 196.942412,78.9711397 L263.985502,78.9711397 C265.441506,80.2505515 264.554222,81.8724265 263.288189,81.8724265 Z" id="ed29f808-f3a3-4ac8-bd45-563f73aa9d8b" fill="#CCCCCC"></path>
                <path d="M254.442882,0 C255.965004,0.00174136024 257.198494,1.23523084 257.200235,2.75735294 L257.200235,11.5808824 C257.198494,13.1030045 255.965004,14.3364939 254.442882,14.3382353 L205.913471,14.3382353 C204.391348,14.3364939 203.157859,13.1030045 203.156118,11.5808824 L203.156118,2.75735294 C203.157859,1.23523084 204.391348,0.00174136024 205.913471,0" id="Path" fill="#FFC706"></path>
                <path d="M397.273765,182.536765 L311.244353,182.536765 C306.069099,182.530939 301.875179,178.337019 301.869353,173.161765 L301.869353,103.125 C301.875179,97.9497456 306.069099,93.755826 311.244353,93.75 L397.273765,93.75 C402.449019,93.755826 406.642939,97.9497456 406.648765,103.125 L406.648765,173.161765 C406.642939,178.337019 402.449019,182.530939 397.273765,182.536765 Z M311.244353,94.8529412 C306.677963,94.8581076 302.977461,98.5586098 302.972294,103.125 L302.972294,173.161765 C302.977461,177.728155 306.677963,181.428657 311.244353,181.433824 L397.273765,181.433824 C401.840155,181.428657 405.540657,177.728155 405.545824,173.161765 L405.545824,103.125 C405.540657,98.5586098 401.840155,94.8581076 397.273765,94.8529412 L311.244353,94.8529412 Z" id="Shape" fill="#3F3D56"></path>
                <path d="M387.495364,114.781985 L344.077439,114.781985 C343.285674,114.798056 342.616729,114.198173 342.546767,113.409342 C342.525376,113.011643 342.668428,112.62264 342.942379,112.333551 C343.216331,112.044462 343.597085,111.880704 343.995358,111.880704 L388.192136,111.880704 C389.648134,113.160116 388.760857,114.781991 387.494824,114.781991 L387.495364,114.781985 Z" id="ab56b95a-ad0a-4db6-b885-1de339e59248" fill="#3F3D56"></path>
                <path d="M387.495364,122.397794 L344.077439,122.397794 C343.285674,122.413865 342.616729,121.813982 342.546767,121.025151 C342.525376,120.627452 342.668428,120.238449 342.942379,119.94936 C343.216331,119.66027 343.597085,119.496513 343.995358,119.496513 L388.192136,119.496513 C389.648134,120.775925 388.760857,122.3978 387.494824,122.3978 L387.495364,122.397794 Z" id="a65ba0e0-92d5-467b-b937-6962ba88422c" fill="#3F3D56"></path>
                <path d="M334.691498,126.734007 L321.440763,126.734007 C320.539922,126.733095 319.809873,126.003047 319.808961,125.102206 L319.808961,109.465257 C319.809873,108.564416 320.539922,107.834368 321.440763,107.833456 L334.691498,107.833456 C335.592213,107.834671 336.322085,108.564542 336.3233,109.465257 L336.3233,125.102206 C336.322388,126.003047 335.592339,126.733095 334.691498,126.734007 L334.691498,126.734007 Z" id="fb801fe4-3edc-4e65-9957-dec023933e0a" fill="#CCCCCC"></path>
                <path d="M387.081204,169.197243 L373.830469,169.197243 C372.929628,169.196331 372.199579,168.466282 372.198667,167.565441 L372.198667,158.54614 C372.199579,157.645299 372.929628,156.91525 373.830469,156.914338 L387.081204,156.914338 C387.981919,156.915553 388.71179,157.645424 388.713006,158.54614 L388.713006,167.565441 C388.712094,168.466282 387.982045,169.196331 387.081204,169.197243 L387.081204,169.197243 Z" id="faab0864-6611-44c5-86ab-6dd51d336b1d" fill="#3F3D56"></path>
                <path d="M387.369072,137.991176 L321.105369,137.991176 C320.313619,138.007245 319.644684,137.407382 319.574708,136.618566 C319.55331,136.220866 319.69636,135.83186 319.970311,135.542768 C320.244262,135.253677 320.625019,135.089923 321.023294,135.089923 L388.066384,135.089923 C389.522388,136.369335 388.635105,137.99121 387.369072,137.99121 L387.369072,137.991176 Z" id="ada3facf-2b93-40cb-83c6-b6d8dc380c35" fill="#CCCCCC"></path>
                <path d="M387.369072,145.609191 L321.105369,145.609191 C320.31361,145.625259 319.64467,145.02538 319.574708,144.236553 C319.55331,143.838853 319.69636,143.449847 319.970311,143.160756 C320.244262,142.871664 320.625019,142.70791 321.023294,142.70791 L388.066384,142.70791 C389.522388,143.987322 388.635105,145.609197 387.369072,145.609197 L387.369072,145.609191 Z" id="a50891a7-c495-4965-ab40-a1f907e5cce2" fill="#CCCCCC"></path>
                <path d="M387.369072,153.222243 L321.105369,153.222243 C320.313609,153.238313 319.644667,152.638432 319.574708,151.849605 C319.55331,151.451905 319.69636,151.062899 319.970311,150.773807 C320.244262,150.484716 320.625019,150.320961 321.023294,150.320961 L388.066384,150.320961 C389.522388,151.600373 388.635105,153.222248 387.369072,153.222248 L387.369072,153.222243 Z" id="f645be9d-0c31-4d92-bfb2-feede413f090" fill="#CCCCCC"></path>
                <path d="M352.626425,160.839706 L321.105369,160.839706 C320.313618,160.855777 319.644681,160.255912 319.574708,159.467096 C319.55331,159.069395 319.69636,158.680389 319.970311,158.391298 C320.244262,158.102206 320.625019,157.938452 321.023294,157.938452 L353.323737,157.938452 C354.779741,159.217864 353.892458,160.839739 352.626425,160.839739 L352.626425,160.839706 Z" id="f96ba49d-c571-4857-91da-e214cd5ba82f" fill="#CCCCCC"></path>
                <path d="M352.626425,168.453309 L321.105369,168.453309 C320.31361,168.469376 319.64467,167.869497 319.574708,167.080671 C319.55331,166.68297 319.696359,166.293964 319.970311,166.004871 C320.244262,165.715779 320.625018,165.552022 321.023294,165.552022 L353.323737,165.552022 C354.779741,166.831434 353.892458,168.453309 352.626425,168.453309 L352.626425,168.453309 Z" id="a7214c6f-9d52-425a-b9ef-635698aec079" fill="#CCCCCC"></path>
                <path d="M378.523765,100.919118 L329.994353,100.919118 C328.472231,100.917376 327.238741,99.6838868 327.237,98.1617647 L327.237,89.3382353 C327.238741,87.8161132 328.472231,86.5826237 329.994353,86.5808824 L378.523765,86.5808824 C380.045887,86.5826237 381.279376,87.8161132 381.281118,89.3382353 L381.281118,98.1617647 C381.279376,99.6838868 380.045887,100.917376 378.523765,100.919118 L378.523765,100.919118 Z" id="Path" fill="#FFC706"></path>
                <path d="M210.661765,300 L0.551470588,300 C0.246901792,300 0,299.753098 0,299.448529 C0,299.143961 0.246901792,298.897059 0.551470588,298.897059 L210.661765,298.897059 C210.966334,298.897059 211.213235,299.143961 211.213235,299.448529 C211.213235,299.753098 210.966334,300 210.661765,300 Z" id="Path" fill="#3F3D56"></path>
                <circle id="Oval" fill="#F2F2F2" cx="53.3623787" cy="12.8626654" r="3.56629963"></circle>
                <circle id="Oval" fill="#F2F2F2" cx="53.3623787" cy="27.0758824" r="3.56629963"></circle>
                <circle id="Oval" fill="#F2F2F2" cx="53.3623787" cy="41.2890993" r="3.56629963"></circle>
                <circle id="Oval" fill="#F2F2F2" cx="53.3623787" cy="55.5023162" r="3.56629963"></circle>
                <circle id="Oval" fill="#F2F2F2" cx="68.2520846" cy="12.8626654" r="3.56629963"></circle>
                <circle id="Oval" fill="#F2F2F2" cx="68.2520846" cy="27.0758824" r="3.56629963"></circle>
                <circle id="Oval" fill="#F2F2F2" cx="68.2520846" cy="41.2890993" r="3.56629963"></circle>
                <circle id="Oval" fill="#F2F2F2" cx="68.2520846" cy="55.5023162" r="3.56629963"></circle>
                <circle id="Oval" fill="#F2F2F2" cx="83.1417904" cy="12.8626654" r="3.56629963"></circle>
                <circle id="Oval" fill="#F2F2F2" cx="83.1417904" cy="27.0758824" r="3.56629963"></circle>
                <circle id="Oval" fill="#F2F2F2" cx="83.1417904" cy="41.2890993" r="3.56629963"></circle>
                <circle id="Oval" fill="#F2F2F2" cx="83.1417904" cy="55.5023162" r="3.56629963"></circle>
                <circle id="Oval" fill="#F2F2F2" cx="98.0314963" cy="12.8626654" r="3.56629963"></circle>
                <circle id="Oval" fill="#F2F2F2" cx="98.0314963" cy="27.0758824" r="3.56629963"></circle>
                <circle id="Oval" fill="#F2F2F2" cx="98.0314963" cy="41.2890993" r="3.56629963"></circle>
                <circle id="Oval" fill="#F2F2F2" cx="98.0314963" cy="55.5023162" r="3.56629963"></circle>
                <circle id="Oval" fill="#F2F2F2" cx="112.921202" cy="12.8626654" r="3.56629963"></circle>
                <circle id="Oval" fill="#F2F2F2" cx="112.921202" cy="27.0758824" r="3.56629963"></circle>
                <circle id="Oval" fill="#F2F2F2" cx="112.921202" cy="41.2890993" r="3.56629963"></circle>
                <circle id="Oval" fill="#F2F2F2" cx="112.921202" cy="55.5023162" r="3.56629963"></circle>
                <circle id="Oval" fill="#F2F2F2" cx="127.810908" cy="12.8626654" r="3.56629963"></circle>
                <circle id="Oval" fill="#F2F2F2" cx="127.810908" cy="27.0758824" r="3.56629963"></circle>
                <circle id="Oval" fill="#F2F2F2" cx="127.810908" cy="41.2890993" r="3.56629963"></circle>
                <circle id="Oval" fill="#F2F2F2" cx="127.810908" cy="55.5023162" r="3.56629963"></circle>
                <circle id="Oval" fill="#F2F2F2" cx="331.855026" cy="210.289136" r="3.56629963"></circle>
                <circle id="Oval" fill="#F2F2F2" cx="331.855026" cy="224.502353" r="3.56629963"></circle>
                <circle id="Oval" fill="#F2F2F2" cx="331.855026" cy="238.71557" r="3.56629963"></circle>
                <circle id="Oval" fill="#F2F2F2" cx="346.744732" cy="210.289136" r="3.56629963"></circle>
                <circle id="Oval" fill="#F2F2F2" cx="346.744732" cy="224.502353" r="3.56629963"></circle>
                <circle id="Oval" fill="#F2F2F2" cx="346.744732" cy="238.71557" r="3.56629963"></circle>
                <circle id="Oval" fill="#F2F2F2" cx="361.634437" cy="210.289136" r="3.56629963"></circle>
                <circle id="Oval" fill="#F2F2F2" cx="361.634437" cy="224.502353" r="3.56629963"></circle>
                <circle id="Oval" fill="#F2F2F2" cx="361.634437" cy="238.71557" r="3.56629963"></circle>
                <circle id="Oval" fill="#F2F2F2" cx="376.524143" cy="210.289136" r="3.56629963"></circle>
                <circle id="Oval" fill="#F2F2F2" cx="376.524143" cy="224.502353" r="3.56629963"></circle>
                <circle id="Oval" fill="#F2F2F2" cx="376.524143" cy="238.71557" r="3.56629963"></circle>
            </g>
        </g>
    </g>
</svg>