<?xml version="1.0" encoding="UTF-8"?>
<svg width="90px" height="75px" viewBox="0 0 90 75" version="1.1" xmlns="http://www.w3.org/2000/svg" xmlns:xlink="http://www.w3.org/1999/xlink">
    <title>logo</title>
    <g id="Page-1" stroke="none" stroke-width="1" fill="none" fill-rule="evenodd">
        <g id="Desktop-HD" transform="translate(-32.000000, -32.000000)" fill-rule="nonzero">
            <g id="logo" transform="translate(32.000000, 32.000000)">
                <path d="M62.4255617,74.4200522 C62.2258445,74.4200522 62.0295812,74.3679511 61.8559334,74.269293 L28.9215533,55.6494146 C28.3641663,55.3333795 28.1677256,54.6258342 28.4824057,54.0676812 L54.4224299,8.18568737 C54.573876,7.91765201 54.825628,7.72078484 55.122268,7.63842203 C55.4189079,7.55605922 55.7361193,7.5949523 56.0040748,7.74653976 L88.9383766,26.3664182 C89.4957831,26.6823846 89.6922972,27.3898888 89.3776893,27.9480631 L63.4375817,73.8299786 C63.2867539,74.0985731 63.0347443,74.2956677 62.7377213,74.3773336 C62.6360776,74.4056188 62.5310675,74.4200522 62.4255617,74.4200522 Z" id="Path" fill="#E6E6E6"></path>
                <polygon id="Rectangle" fill="#FFFFFF" transform="translate(70.841213, 19.939611) rotate(-60.517770) translate(-70.841213, -19.939611) " points="70.7067566 -0.0527630011 70.97567 -0.0527630011 70.97567 39.9319848 70.7067566 39.9319848"></polygon>
                <polygon id="Rectangle" fill="#FFFFFF" transform="translate(68.458970, 24.153256) rotate(-60.517770) translate(-68.458970, -24.153256) " points="68.3245138 4.16088252 68.5934272 4.16088252 68.5934272 44.1456303 68.3245138 44.1456303"></polygon>
                <polygon id="Rectangle" fill="#FFFFFF" transform="translate(66.076729, 28.366904) rotate(-60.517770) translate(-66.076729, -28.366904) " points="65.9422725 8.37453059 66.2111859 8.37453059 66.2111859 48.3592783 65.9422725 48.3592783"></polygon>
                <polygon id="Rectangle" fill="#FFFFFF" transform="translate(63.694486, 32.580552) rotate(-60.517770) translate(-63.694486, -32.580552) " points="63.5600297 12.5881778 63.8289431 12.5881778 63.8289431 52.5729256 63.5600297 52.5729256"></polygon>
                <polygon id="Rectangle" fill="#FFFFFF" transform="translate(61.312243, 36.794200) rotate(-60.517770) translate(-61.312243, -36.794200) " points="61.1777861 16.8018265 61.4466995 16.8018265 61.4466995 56.7865743 61.1777861 56.7865743"></polygon>
                <polygon id="Rectangle" fill="#FFFFFF" transform="translate(58.930000, 41.007848) rotate(-60.517770) translate(-58.930000, -41.007848) " points="58.7955433 21.0154737 59.0644567 21.0154737 59.0644567 61.0002215 58.7955433 61.0002215"></polygon>
                <polygon id="Rectangle" fill="#FFFFFF" transform="translate(56.547759, 45.221496) rotate(-60.517770) translate(-56.547759, -45.221496) " points="56.413302 25.2291218 56.6822154 25.2291218 56.6822154 65.2138696 56.413302 65.2138696"></polygon>
                <polygon id="Rectangle" fill="#FFFFFF" transform="translate(54.165516, 49.435143) rotate(-60.517770) translate(-54.165516, -49.435143) " points="54.0310592 29.442769 54.2999726 29.442769 54.2999726 69.4275168 54.0310592 69.4275168"></polygon>
                <polygon id="Rectangle" fill="#FFFFFF" transform="translate(51.783273, 53.648790) rotate(-60.517770) translate(-51.783273, -53.648790) " points="51.6488164 33.6564163 51.9177298 33.6564163 51.9177298 73.641164 51.6488164 73.641164"></polygon>
                <polygon id="Rectangle" fill="#FFFFFF" transform="translate(49.401034, 57.862438) rotate(-60.517770) translate(-49.401034, -57.862438) " points="49.2665768 37.8700643 49.5354902 37.8700643 49.5354902 77.8548121 49.2665768 77.8548121"></polygon>
                <polygon id="Rectangle" fill="#FFFFFF" transform="translate(47.018790, 62.076087) rotate(-60.517770) translate(-47.018790, -62.076087) " points="46.8843332 42.083713 47.1532466 42.083713 47.1532466 82.0684608 46.8843332 82.0684608"></polygon>
                <path d="M59.3618362,67.4415663 C59.1621191,67.4415663 58.9658557,67.3894653 58.7922079,67.2908072 L25.8578278,48.6709287 C25.3004408,48.3548937 25.1040001,47.6473484 25.4186802,47.0891953 L51.3587044,1.20720153 C51.5101505,0.939166175 51.7619025,0.742299 52.0585425,0.65993619 C52.3551824,0.577573381 52.6723938,0.616466457 52.9403493,0.768053923 L85.8746511,19.3879324 C86.4320576,19.7038988 86.6285717,20.4114029 86.3139638,20.9695773 L60.3738562,66.8514928 C60.2230284,67.1200872 59.9710188,67.3171818 59.6739958,67.3988478 C59.5723521,67.4271329 59.4673421,67.4415663 59.3618362,67.4415663 Z" id="Path" fill="#F2F2F2"></path>
                <polygon id="Rectangle" fill="#FFFFFF" transform="translate(67.777488, 12.961124) rotate(-60.517770) translate(-67.777488, -12.961124) " points="67.6430314 -7.03125 67.9119448 -7.03125 67.9119448 32.9534978 67.6430314 32.9534978"></polygon>
                <polygon id="Rectangle" fill="#FFFFFF" transform="translate(65.395245, 17.174771) rotate(-60.517770) translate(-65.395245, -17.174771) " points="65.2607886 -2.81760277 65.529702 -2.81760277 65.529702 37.167145 65.2607886 37.167145"></polygon>
                <polygon id="Rectangle" fill="#FFFFFF" transform="translate(63.013004, 21.388419) rotate(-60.517770) translate(-63.013004, -21.388419) " points="62.8785473 1.39604529 63.1474607 1.39604529 63.1474607 41.380793 62.8785473 41.380793"></polygon>
                <polygon id="Rectangle" fill="#FFFFFF" transform="translate(60.630761, 25.602066) rotate(-60.517770) translate(-60.630761, -25.602066) " points="60.4963045 5.60969252 60.7652179 5.60969252 60.7652179 45.5944403 60.4963045 45.5944403"></polygon>
                <polygon id="Rectangle" fill="#FFFFFF" transform="translate(58.248518, 29.815715) rotate(-60.517770) translate(-58.248518, -29.815715) " points="58.1140609 9.82334122 58.3829743 9.82334122 58.3829743 49.808089 58.1140609 49.808089"></polygon>
                <polygon id="Rectangle" fill="#FFFFFF" transform="translate(55.866275, 34.029362) rotate(-60.517770) translate(-55.866275, -34.029362) " points="55.7318181 14.0369884 56.0007315 14.0369884 56.0007315 54.0217362 55.7318181 54.0217362"></polygon>
                <polygon id="Rectangle" fill="#FFFFFF" transform="translate(53.484033, 38.243010) rotate(-60.517770) translate(-53.484033, -38.243010) " points="53.3495768 18.2506365 53.6184902 18.2506365 53.6184902 58.2353843 53.3495768 58.2353843"></polygon>
                <polygon id="Rectangle" fill="#FFFFFF" transform="translate(51.101791, 42.456658) rotate(-60.517770) translate(-51.101791, -42.456658) " points="50.967334 22.4642837 51.2362474 22.4642837 51.2362474 62.4490315 50.967334 62.4490315"></polygon>
                <polygon id="Rectangle" fill="#FFFFFF" transform="translate(48.719548, 46.670305) rotate(-60.517770) translate(-48.719548, -46.670305) " points="48.5850912 26.677931 48.8540046 26.677931 48.8540046 66.6626787 48.5850912 66.6626787"></polygon>
                <polygon id="Rectangle" fill="#FFFFFF" transform="translate(46.337307, 50.883953) rotate(-60.517770) translate(-46.337307, -50.883953) " points="46.2028499 30.891579 46.4717633 30.891579 46.4717633 70.8763268 46.2028499 70.8763268"></polygon>
                <polygon id="Rectangle" fill="#FFFFFF" transform="translate(43.955063, 55.097602) rotate(-60.517770) translate(-43.955063, -55.097602) " points="43.8206063 35.1052277 44.0895197 35.1052277 44.0895197 75.0899755 43.8206063 75.0899755"></polygon>
                <path d="M56.0798798,0.340429332 L3.44558653,0.340429332 L3.44558653,73.5294272 L56.0798798,73.5294272 C56.4735891,73.5294272 56.7927611,73.2102569 56.7927611,72.8165476 L56.7927611,1.05330889 C56.7927611,0.659599612 56.4735891,0.340429332 56.0798798,0.340429332 Z M6.41591776,71.5096014 C5.88730639,71.5096014 5.41074514,71.1911748 5.20845401,70.7028017 C5.00616288,70.2144286 5.11797968,69.6522866 5.49176437,69.2785019 C5.86554905,68.9047172 6.42769103,68.7929004 6.91606413,68.9951916 C7.40443722,69.1974827 7.7228639,69.6740439 7.7228639,70.2026553 C7.7228639,70.5492794 7.58516998,70.881707 7.34006973,71.1268073 C7.09496949,71.3719075 6.76254184,71.5096014 6.41591776,71.5096014 L6.41591776,71.5096014 Z M6.41591776,64.8560611 C5.69411133,64.8560611 5.10897161,64.2709163 5.10897161,63.5491099 C5.10897161,62.8273035 5.69411133,62.2421637 6.41591776,62.2421637 C7.13772418,62.2421637 7.7228639,62.8273035 7.7228639,63.5491099 C7.7228639,63.8957349 7.58517193,64.2281638 7.34007154,64.4732652 C7.09497115,64.7183665 6.76254273,64.8560611 6.41591776,64.8560611 L6.41591776,64.8560611 Z M6.41591776,58.2025106 C5.69411133,58.2025106 5.10897161,57.6173709 5.10897161,56.8955645 C5.10897161,56.1737581 5.69411133,55.5886183 6.41591776,55.5886183 C7.13772418,55.5886183 7.7228639,56.1737581 7.7228639,56.8955645 C7.7228639,57.2421886 7.58516998,57.5746162 7.34006973,57.8197165 C7.09496949,58.0648167 6.76254184,58.2025106 6.41591776,58.2025106 Z M6.41591776,51.5489652 C5.69411133,51.5489652 5.10897161,50.9638255 5.10897161,50.2420191 C5.10897161,49.5202126 5.69411133,48.9350729 6.41591776,48.9350729 C7.13772418,48.9350729 7.7228639,49.5202126 7.7228639,50.2420191 C7.7228639,50.5886431 7.58516998,50.9210708 7.34006973,51.166171 C7.09496949,51.4112713 6.76254184,51.5489652 6.41591776,51.5489652 Z M6.41591776,44.8954198 C5.88730738,44.8954198 5.41074739,44.5769926 5.20845696,44.0886203 C5.00616653,43.600248 5.11798329,43.0381071 5.49176727,42.6643232 C5.86555125,42.2905392 6.42769209,42.1787224 6.91606439,42.3810129 C7.4044367,42.5833033 7.7228639,43.0598633 7.7228639,43.5884737 C7.7228639,43.9350977 7.58516998,44.2675254 7.34006973,44.5126256 C7.09496949,44.7577259 6.76254184,44.8954198 6.41591776,44.8954198 Z M6.41591776,38.2418744 C5.88730738,38.2418744 5.41074739,37.9234472 5.20845696,37.4350749 C5.00616653,36.9467026 5.11798329,36.3845617 5.49176727,36.0107778 C5.86555125,35.6369938 6.42769209,35.525177 6.91606439,35.7274674 C7.4044367,35.9297579 7.7228639,36.4063179 7.7228639,36.9349282 C7.7228639,37.2815523 7.58516998,37.61398 7.34006973,37.8590802 C7.09496949,38.1041805 6.76254184,38.2418744 6.41591776,38.2418744 Z M6.41591776,31.588329 C5.69411133,31.588329 5.10897161,31.0031893 5.10897161,30.2813828 C5.10897161,29.5595764 5.69411133,28.9744367 6.41591776,28.9744367 C7.13772418,28.9744367 7.7228639,29.5595764 7.7228639,30.2813828 C7.7228639,30.6280069 7.58516998,30.9604346 7.34006973,31.2055348 C7.09496949,31.4506351 6.76254184,31.588329 6.41591776,31.588329 L6.41591776,31.588329 Z M6.41591776,24.9347836 C5.69411133,24.9347836 5.10897161,24.3496438 5.10897161,23.6278374 C5.10897161,22.906031 5.69411133,22.3208913 6.41591776,22.3208913 C7.13772418,22.3208913 7.7228639,22.906031 7.7228639,23.6278374 C7.7228639,23.9744615 7.58516998,24.3068892 7.34006973,24.5519894 C7.09496949,24.7970896 6.76254184,24.9347836 6.41591776,24.9347836 L6.41591776,24.9347836 Z M6.41591776,18.2812382 C5.69411133,18.2812382 5.10897161,17.6960984 5.10897161,16.974292 C5.10897161,16.2524856 5.69411133,15.6673459 6.41591776,15.6673459 C7.13772418,15.6673459 7.7228639,16.2524856 7.7228639,16.974292 C7.7228639,17.3209161 7.58516998,17.6533437 7.34006973,17.898444 C7.09496949,18.1435442 6.76254184,18.2812382 6.41591776,18.2812382 L6.41591776,18.2812382 Z M6.41591776,11.6276944 C5.88730654,11.6276944 5.41074541,11.309268 5.20845418,10.8208951 C5.00616294,10.3325222 5.11797943,9.77038033 5.49176377,9.39659551 C5.8655481,9.02281069 6.4276898,8.91099347 6.91606295,9.11328407 C7.4044361,9.31557466 7.7228639,9.79213538 7.7228639,10.3207466 C7.7228639,10.6673708 7.58517003,10.9997987 7.34006984,11.2448992 C7.09496965,11.4899997 6.762542,11.6276944 6.41591776,11.6276944 L6.41591776,11.6276944 Z M6.41591776,4.97414904 C5.88730654,4.97414904 5.41074541,4.65572254 5.20845418,4.16734965 C5.00616294,3.67897677 5.11797943,3.11683492 5.49176377,2.7430501 C5.8655481,2.36926528 6.4276898,2.25744806 6.91606295,2.45973866 C7.4044361,2.66202925 7.7228639,3.13858997 7.7228639,3.66720119 C7.7228639,4.01382543 7.58517003,4.34625326 7.34006984,4.59135377 C7.09496965,4.83645428 6.762542,4.97414904 6.41591776,4.97414904 L6.41591776,4.97414904 Z" id="Shape" fill="#3F3D56"></path>
                <path d="M3.44558483,4.38008245 C3.09291599,4.38008245 0,4.3634311 0,3.78601587 C0,3.20860063 3.09291599,3.19194928 3.44558483,3.19194928 L3.44558483,3.42957523 C1.62389195,3.42957523 0.442677696,3.6334951 0.252449278,3.78601587 C0.442677696,3.93853493 1.62389195,4.14245479 3.44558483,4.14245479 C5.26321657,4.14245479 6.44321385,3.93939788 6.6374166,3.78706264 C6.54499421,3.72179677 6.16745643,3.58499973 5.15480324,3.49745548 L5.17525361,3.26075715 C6.89117136,3.40904146 6.89117136,3.68292661 6.89117136,3.78601587 C6.89117136,4.3634311 3.79825368,4.38008245 3.44558483,4.38008245 Z" id="Path" fill="#2F2E41"></path>
                <path d="M3.44558483,10.9148132 C3.09291599,10.9148132 0,10.8981635 0,10.3207466 C0,9.74332966 3.09291599,9.72668001 3.44558483,9.72668001 L3.44558483,9.96431277 C1.62389195,9.96431277 0.442677696,10.1682326 0.252449278,10.3207517 C0.442677696,10.4732725 1.62389195,10.6771923 3.44558483,10.6771923 C5.26321657,10.6771923 6.44321385,10.4741354 6.6374166,10.3218002 C6.54499421,10.2565343 6.16745643,10.1197356 5.15480324,10.032193 L5.17525361,9.79549469 C6.89117136,9.94377901 6.89117136,10.2176641 6.89117136,10.3207534 C6.89117136,10.8981635 3.79825368,10.9148132 3.44558483,10.9148132 Z" id="Path" fill="#2F2E41"></path>
                <path d="M3.44558483,17.5683586 C3.09291599,17.5683586 0,17.5517089 0,16.974292 C0,16.3968751 3.09291599,16.3802254 3.44558483,16.3802254 L3.44558483,16.6178531 C1.62389195,16.6178531 0.442677696,16.8217729 0.252449278,16.974292 C0.442677696,17.1268128 1.62389195,17.3307326 3.44558483,17.3307326 C5.26321657,17.3307326 6.44321385,17.1276757 6.6374166,16.9753405 C6.54499421,16.9100746 6.16745643,16.7732759 5.15480324,16.6857333 L5.17525361,16.449035 C6.89117136,16.5973193 6.89117136,16.8712045 6.89117136,16.9742937 C6.89117136,17.5517089 3.79825368,17.5683586 3.44558483,17.5683586 Z" id="Path" fill="#2F2E41"></path>
                <path d="M3.44558483,24.221904 C3.09291599,24.221904 0,24.2052544 0,23.6278374 C0,23.0504205 3.09291599,23.0337708 3.44558483,23.0337708 L3.44558483,23.2713985 C1.62389195,23.2713985 0.442677696,23.4753184 0.252449278,23.6278374 C0.442677696,23.7803582 1.62389195,23.9842781 3.44558483,23.9842781 C5.26321657,23.9842781 6.44321385,23.7812211 6.6374166,23.6288859 C6.54499421,23.56362 6.16745643,23.4268213 5.15480324,23.3392787 L5.17525361,23.1025804 C6.89117136,23.2508647 6.89117136,23.5247499 6.89117136,23.6278391 C6.89117136,24.2052544 3.79825368,24.221904 3.44558483,24.221904 Z" id="Path" fill="#2F2E41"></path>
                <path d="M3.44558483,30.8754494 C3.09291599,30.8754494 0,30.8587998 0,30.2813828 C0,29.7039659 3.09291599,29.6873162 3.44558483,29.6873162 L3.44558483,29.9249439 C1.62389195,29.9249439 0.442677696,30.1288638 0.252449278,30.2813828 C0.442677696,30.4339019 1.62389195,30.6378235 3.44558483,30.6378235 C5.26321657,30.6378235 6.44321385,30.4347665 6.6374166,30.2824313 C6.54499421,30.2171654 6.16745643,30.0803667 5.15480324,29.9928224 L5.17525361,29.7561241 C6.89117136,29.9044101 6.89117136,30.1782953 6.89117136,30.2813828 C6.89117136,30.8587998 3.79825368,30.8754494 3.44558483,30.8754494 Z" id="Path" fill="#2F2E41"></path>
                <path d="M3.44558483,37.5289914 C3.09291599,37.5289914 0,37.5123418 0,36.9349248 C0,36.3575079 3.09291599,36.3408583 3.44558483,36.3408583 L3.44558483,36.5784842 C1.62389195,36.5784842 0.442677696,36.7824058 0.252449278,36.9349248 C0.442677696,37.0874439 1.62389195,37.2913655 3.44558483,37.2913655 C5.26321657,37.2913655 6.44321385,37.0883086 6.6374166,36.9359733 C6.54499421,36.8707057 6.16745643,36.7339087 5.15480324,36.6463644 L5.17525361,36.4096661 C6.89117136,36.5579521 6.89117136,36.8318373 6.89117136,36.9349248 C6.89117136,37.5123452 3.79825368,37.5289914 3.44558483,37.5289914 Z" id="Path" fill="#2F2E41"></path>
                <path d="M3.44558483,44.1825402 C3.09291599,44.1825402 0,44.1658906 0,43.5884737 C0,43.0110567 3.09291599,42.9944071 3.44558483,42.9944071 L3.44558483,43.232033 C1.62389195,43.232033 0.442677696,43.4359546 0.252449278,43.5884737 C0.442677696,43.7409927 1.62389195,43.9449143 3.44558483,43.9449143 C5.26321657,43.9449143 6.44321385,43.7418574 6.6374166,43.5895221 C6.54499421,43.5242563 6.16745643,43.3874592 5.15480324,43.299915 L5.17525361,43.0632166 C6.89117136,43.211501 6.89117136,43.4853878 6.89117136,43.5884754 C6.89117136,44.1658906 3.79825368,44.1825402 3.44558483,44.1825402 Z" id="Path" fill="#2F2E41"></path>
                <path d="M3.44558483,50.8360857 C3.09291599,50.8360857 0,50.819436 0,50.2420191 C0,49.6646021 3.09291599,49.6479525 3.44558483,49.6479525 L3.44558483,49.8855784 C1.62389195,49.8855784 0.442677696,50.0895 0.252449278,50.2420191 C0.442677696,50.3945381 1.62389195,50.598458 3.44558483,50.598458 C5.26321657,50.598458 6.44321385,50.3954011 6.6374166,50.2430658 C6.54499421,50.1778 6.16745643,50.0410029 5.15480324,49.9534587 L5.17525361,49.7167604 C6.89117136,49.8650447 6.89117136,50.1389315 6.89117136,50.2420191 C6.89117136,50.8194326 3.79825368,50.8360857 3.44558483,50.8360857 Z" id="Path" fill="#2F2E41"></path>
                <path d="M3.44558483,57.4896311 C3.09291599,57.4896311 0,57.4729797 0,56.8955645 C0,56.3181492 3.09291599,56.3014979 3.44558483,56.3014979 L3.44558483,56.5391238 C1.62389195,56.5391238 0.442677696,56.7430437 0.252449278,56.8955645 C0.442677696,57.0480835 1.62389195,57.2520034 3.44558483,57.2520034 C5.26321657,57.2520034 6.44321385,57.0489465 6.6374166,56.8966112 C6.54499421,56.8313454 6.16745643,56.6945483 5.15480324,56.6070041 L5.17525361,56.3703058 C6.89117136,56.5185901 6.89117136,56.7924752 6.89117136,56.8955645 C6.89117136,57.4729797 3.79825368,57.4896311 3.44558483,57.4896311 Z" id="Path" fill="#2F2E41"></path>
                <path d="M3.44558483,64.1431765 C3.09291599,64.1431765 0,64.1265251 0,63.5491099 C0,62.9716947 3.09291599,62.9550433 3.44558483,62.9550433 L3.44558483,63.1926693 C1.62389195,63.1926693 0.442677696,63.3965891 0.252449278,63.5491099 C0.442677696,63.701629 1.62389195,63.9055488 3.44558483,63.9055488 C5.26321657,63.9055488 6.44321385,63.7024919 6.6374166,63.5501567 C6.54499421,63.4848908 6.16745643,63.3480938 5.15480324,63.2605495 L5.17525361,63.0238512 C6.89117136,63.1721355 6.89117136,63.4460206 6.89117136,63.5491099 C6.89117136,64.1265251 3.79825368,64.1431765 3.44558483,64.1431765 Z" id="Path" fill="#2F2E41"></path>
                <path d="M3.44558483,70.7967219 C3.09291599,70.7967219 0,70.7800705 0,70.2026553 C0,69.6252401 3.09291599,69.6085887 3.44558483,69.6085887 L3.44558483,69.8462147 C1.62389195,69.8462147 0.442677696,70.0501345 0.252449278,70.2026553 C0.442677696,70.3551744 1.62389195,70.5590942 3.44558483,70.5590942 C5.26321657,70.5590942 6.44321385,70.3560373 6.6374166,70.2037021 C6.54499421,70.1384362 6.16745643,70.0016392 5.15480324,69.9140949 L5.17525361,69.6773966 C6.89117136,69.8256809 6.89117136,70.099566 6.89117136,70.2026553 C6.89117136,70.7800705 3.79825368,70.7967219 3.44558483,70.7967219 Z" id="Path" fill="#2F2E41"></path>
                <path d="M45.3272757,28.3209645 L19.1883476,28.3209645 C18.7620285,28.3204767 18.4165502,27.9749984 18.4160624,27.5486793 L18.4160624,17.3307326 C18.4165492,16.9044128 18.7620278,16.5589335 19.1883476,16.5584457 L45.3272757,16.5584457 C45.7535981,16.5589279 46.0990804,16.9044102 46.0995626,17.3307326 L46.0995626,27.5486776 C46.0990804,27.975 45.7535981,28.3204823 45.3272757,28.3209645 Z" id="Path" fill="#FFFFFF"></path>
                <path d="M35.5845844,20.0634379 L28.9310423,20.0634379 C28.6029484,20.0634379 28.3369758,19.7974652 28.3369758,19.4693713 C28.3369758,19.1412774 28.6029484,18.8753047 28.9310423,18.8753047 L35.5845878,18.8753047 C35.9126817,18.8753047 36.1786543,19.1412774 36.1786543,19.4693713 C36.1786543,19.7974652 35.9126817,20.0634379 35.5845878,20.0634379 L35.5845844,20.0634379 Z" id="Path" fill="#FFC706"></path>
                <path d="M39.2677968,23.0337708 L25.2478265,23.0337708 C24.9197325,23.0337708 24.6537599,22.7677982 24.6537599,22.4397043 C24.6537599,22.1116103 24.9197325,21.8456377 25.2478265,21.8456377 L39.2677968,21.8456377 C39.5958908,21.8456377 39.8618634,22.1116103 39.8618634,22.4397043 C39.8618634,22.7677982 39.5958908,23.0337708 39.2677968,23.0337708 L39.2677968,23.0337708 Z" id="Path" fill="#FFC706"></path>
                <path d="M39.2677968,26.0041072 L25.2478265,26.0041072 C24.9197325,26.0041072 24.6537599,25.7381345 24.6537599,25.4100406 C24.6537599,25.0819467 24.9197325,24.815974 25.2478265,24.815974 L39.2677968,24.815974 C39.5958908,24.815974 39.8618634,25.0819467 39.8618634,25.4100406 C39.8618634,25.7381345 39.5958908,26.0041072 39.2677968,26.0041072 L39.2677968,26.0041072 Z" id="Path" fill="#FFC706"></path>
            </g>
        </g>
    </g>
</svg>